<?xml version="1.0" encoding="UTF-8"?>
<!DOCTYPE svg PUBLIC "-//W3C//DTD SVG 1.1//EN" "http://www.w3.org/Graphics/SVG/1.1/DTD/svg11.dtd">
<svg xmlns="http://www.w3.org/2000/svg" version="1.1" width="1080px" height="1080px" style="shape-rendering:geometricPrecision; text-rendering:geometricPrecision; image-rendering:optimizeQuality; fill-rule:evenodd; clip-rule:evenodd" xmlns:xlink="http://www.w3.org/1999/xlink">
<g><path style="opacity:0.981" fill="#000000" d="M 161.5,99.5 C 181.503,99.3334 201.503,99.5 221.5,100C 222,100.5 222.5,101 223,101.5C 223.5,194.833 223.667,288.166 223.5,381.5C 235.414,381.821 247.247,381.488 259,380.5C 259.333,287.5 259.667,194.5 260,101.5C 260.5,101 261,100.5 261.5,100C 281.5,99.3333 301.5,99.3333 321.5,100C 322,100.5 322.5,101 323,101.5C 323.667,194.833 323.667,288.167 323,381.5C 313.723,389.775 304.723,398.442 296,407.5C 294.888,409.39 294.054,411.39 293.5,413.5C 301.72,424.557 311.22,434.557 322,443.5C 322.333,444.833 322.667,446.167 323,447.5C 323.478,560.859 323.478,674.193 323,787.5C 321.274,788.576 319.441,788.743 317.5,788C 298.085,776.877 278.918,765.377 260,753.5C 259.173,650.472 259.34,547.472 260.5,444.5C 247.833,444.5 235.167,444.5 222.5,444.5C 223.457,539.56 223.624,634.56 223,729.5C 219.632,730.83 216.465,730.33 213.5,728C 197.092,717.934 180.426,708.267 163.5,699C 162.333,697.833 161.167,696.667 160,695.5C 159.333,611.833 159.333,528.167 160,444.5C 170.78,434.722 181.28,424.555 191.5,414C 181.422,402.584 170.922,391.417 160,380.5C 159.333,287.5 159.333,194.5 160,101.5C 160.717,100.956 161.217,100.289 161.5,99.5 Z"/></g>
<g><path style="opacity:0.982" fill="#000000" d="M 361.5,99.5 C 414.834,99.3333 468.168,99.5 521.5,100C 522,100.5 522.5,101 523,101.5C 523.667,121.5 523.667,141.5 523,161.5C 522.5,162 522,162.5 521.5,163C 488.835,163.5 456.168,163.667 423.5,163.5C 423.5,236.167 423.5,308.833 423.5,381.5C 456.502,381.333 489.502,381.5 522.5,382C 523.161,392.259 523.494,402.592 523.5,413C 523.494,423.408 523.161,433.741 522.5,444C 489.502,444.5 456.502,444.667 423.5,444.5C 423.333,554.501 423.5,664.501 424,774.5C 456.107,794.562 488.774,813.896 522,832.5C 523.646,855.745 523.979,879.079 523,902.5C 521.867,904.211 520.367,904.711 518.5,904C 466.543,874.018 414.543,844.018 362.5,814C 361.299,813.097 360.465,811.931 360,810.5C 359.814,631.029 359.648,451.695 359.5,272.5C 359.667,215.5 359.833,158.5 360,101.5C 360.717,100.956 361.217,100.289 361.5,99.5 Z"/></g>
<g><path style="opacity:0.983" fill="#000000" d="M 561.5,99.5 C 581.503,99.3334 601.503,99.5 621.5,100C 622,100.5 622.5,101 623,101.5C 623.333,169.5 623.667,237.5 624,305.5C 633.682,328.843 644.349,351.843 656,374.5C 657,375.167 658,375.833 659,376.5C 659.333,284.833 659.667,193.167 660,101.5C 660.5,101 661,100.5 661.5,100C 681.5,99.3333 701.5,99.3333 721.5,100C 722,100.5 722.5,101 723,101.5C 723.667,337.167 723.667,572.833 723,808.5C 722.626,809.416 722.126,810.25 721.5,811C 702.336,821.747 683.336,832.747 664.5,844C 662.633,844.711 661.133,844.211 660,842.5C 659.667,734.833 659.333,627.167 659,519.5C 649.807,496.566 639.474,474.232 628,452.5C 626.907,450.651 625.574,448.984 624,447.5C 623.667,587.167 623.333,726.833 623,866.5C 618.077,870.045 613.244,873.712 608.5,877.5C 593.319,885.342 578.153,893.342 563,901.5C 561.893,901.415 560.893,901.081 560,900.5C 559.333,634.167 559.333,367.833 560,101.5C 560.717,100.956 561.217,100.289 561.5,99.5 Z"/></g>
<g><path style="opacity:0.983" fill="#000000" d="M 761.5,99.5 C 814.834,99.3333 868.168,99.5 921.5,100C 922,100.5 922.5,101 923,101.5C 923.667,298.833 923.667,496.167 923,693.5C 870.099,725.282 816.766,756.282 763,786.5C 761.739,786.241 760.739,785.574 760,784.5C 759.333,556.833 759.333,329.167 760,101.5C 760.717,100.956 761.217,100.289 761.5,99.5 Z M 823.5,163.5 C 835.5,163.5 847.5,163.5 859.5,163.5C 859.833,328.501 859.5,493.501 858.5,658.5C 846.906,664.768 835.573,671.435 824.5,678.5C 823.5,506.835 823.167,335.168 823.5,163.5 Z"/></g>
</svg>
