<?xml version="1.0" encoding="UTF-8"?>
<!DOCTYPE svg PUBLIC "-//W3C//DTD SVG 1.1//EN" "http://www.w3.org/Graphics/SVG/1.1/DTD/svg11.dtd">
<svg xmlns="http://www.w3.org/2000/svg" version="1.1" width="1080px" height="1080px" style="shape-rendering:geometricPrecision; text-rendering:geometricPrecision; image-rendering:optimizeQuality; fill-rule:evenodd; clip-rule:evenodd" xmlns:xlink="http://www.w3.org/1999/xlink">
<g><path style="opacity:0.981" fill="#000000" d="M 261.5,99.5 C 281.503,99.3334 301.503,99.5 321.5,100C 322,100.5 322.5,101 323,101.5C 323.833,194.502 323.667,287.502 322.5,380.5C 312.167,391.167 301.833,401.833 291.5,412.5C 301.068,423.903 311.568,434.569 323,444.5C 323.667,558.833 323.667,673.167 323,787.5C 322.107,788.081 321.107,788.415 320,788.5C 301.652,778.74 283.485,768.574 265.5,758C 263.391,756.859 261.558,755.359 260,753.5C 259.667,663.833 259.333,574.167 259,484.5C 254.445,478.945 250.279,473.112 246.5,467C 245.391,466.362 244.225,465.862 243,465.5C 241.37,466.713 239.536,467.546 237.5,468C 232.65,473.23 228.15,478.73 224,484.5C 223.667,566.167 223.333,647.833 223,729.5C 219.632,730.83 216.465,730.33 213.5,728C 197.092,717.934 180.426,708.267 163.5,699C 162.333,697.833 161.167,696.667 160,695.5C 159.667,615.167 159.333,534.833 159,454.5C 158.042,452.801 157.542,450.967 157.5,449C 157.972,445.56 159.138,442.394 161,439.5C 168.833,433.667 176.667,427.833 184.5,422C 187.192,419.443 189.525,416.609 191.5,413.5C 181.881,402.379 171.714,391.712 161,381.5C 160.667,380.167 160.333,378.833 160,377.5C 159.333,307.167 159.333,236.833 160,166.5C 160.133,163.475 161.133,160.808 163,158.5C 182.167,139.333 201.333,120.167 220.5,101C 221.483,100.409 222.15,100.743 222.5,102C 223.329,182.139 223.829,262.305 224,342.5C 229.048,350.382 235.548,356.715 243.5,361.5C 244.795,360.902 246.128,360.402 247.5,360C 251.009,355.66 254.676,351.493 258.5,347.5C 259.333,265.502 259.833,183.502 260,101.5C 260.717,100.956 261.217,100.289 261.5,99.5 Z"/></g>
<g><path style="opacity:0.982" fill="#000000" d="M 361.5,99.5 C 414.834,99.3333 468.168,99.5 521.5,100C 522,100.5 522.5,101 523,101.5C 523.667,121.5 523.667,141.5 523,161.5C 522.5,162 522,162.5 521.5,163C 488.835,163.5 456.168,163.667 423.5,163.5C 423.5,236.167 423.5,308.833 423.5,381.5C 456.502,381.333 489.502,381.5 522.5,382C 523.161,392.259 523.494,402.592 523.5,413C 523.494,423.408 523.161,433.741 522.5,444C 489.502,444.5 456.502,444.667 423.5,444.5C 423.333,554.501 423.5,664.501 424,774.5C 456.14,794.576 488.806,813.909 522,832.5C 523.646,855.745 523.979,879.079 523,902.5C 521.867,904.211 520.367,904.711 518.5,904C 466.532,874.014 414.532,844.014 362.5,814C 361.299,813.097 360.465,811.931 360,810.5C 359.333,574.167 359.333,337.833 360,101.5C 360.717,100.956 361.217,100.289 361.5,99.5 Z"/></g>
<g><path style="opacity:0.983" fill="#000000" d="M 561.5,99.5 C 581.503,99.3334 601.503,99.5 621.5,100C 622,100.5 622.5,101 623,101.5C 623.333,169.833 623.667,238.167 624,306.5C 634.017,331.203 645.684,355.203 659,378.5C 659.333,286.167 659.667,193.833 660,101.5C 660.5,101 661,100.5 661.5,100C 681.5,99.3333 701.5,99.3333 721.5,100C 722,100.5 722.5,101 723,101.5C 723.667,337.167 723.667,572.833 723,808.5C 722.626,809.416 722.126,810.25 721.5,811C 702.336,821.747 683.336,832.747 664.5,844C 662.633,844.711 661.133,844.211 660,842.5C 659.667,733.5 659.333,624.5 659,515.5C 648.08,492.042 636.414,469.042 624,446.5C 623.667,586.5 623.333,726.5 623,866.5C 603.74,879.425 583.74,891.092 563,901.5C 561.893,901.415 560.893,901.081 560,900.5C 559.333,634.167 559.333,367.833 560,101.5C 560.717,100.956 561.217,100.289 561.5,99.5 Z"/></g>
<g><path style="opacity:0.983" fill="#000000" d="M 761.5,99.5 C 794.502,99.3334 827.502,99.5 860.5,100C 880.654,120.32 900.987,140.487 921.5,160.5C 922.308,162.423 922.808,164.423 923,166.5C 923.667,342.167 923.667,517.833 923,693.5C 870.174,725.251 816.841,756.251 763,786.5C 761.739,786.241 760.739,785.574 760,784.5C 759.333,556.833 759.333,329.167 760,101.5C 760.717,100.956 761.217,100.289 761.5,99.5 Z M 823.5,163.5 C 835.5,163.5 847.5,163.5 859.5,163.5C 859.833,328.501 859.5,493.501 858.5,658.5C 846.906,664.768 835.573,671.435 824.5,678.5C 823.5,506.835 823.167,335.168 823.5,163.5 Z"/></g>
<g><path style="opacity:0.043" fill="#000000" d="M 332.5,158.5 C 332.897,157.475 333.563,157.308 334.5,158C 333.906,158.464 333.239,158.631 332.5,158.5 Z"/></g>
</svg>
